/* XPM */
static char *magick[] = {
/* columns rows colors chars-per-pixel */
"32 32 255 2",
"   c #17191200",
".  c #20241400",
"X  c #33370d00",
"o  c #35381800",
"O  c #3b3e2200",
"+  c #3d431000",
"@  c #3d431900",
"#  c #3d402100",
"$  c #3f412900",
"%  c #454c1200",
"&  c #4a531700",
"*  c #51561600",
"=  c #55581b00",
"-  c #47482d00",
";  c #484f2c00",
":  c #41432500",
">  c #4c4e3c00",
",  c #445c2600",
"<  c #48532700",
"1  c #4c532f00",
"2  c #4f582f00",
"3  c #45552300",
"4  c #4f513c00",
"5  c #4b543300",
"6  c #535c2b00",
"7  c #5a601800",
"8  c #49612800",
"9  c #58672600",
"0  c #58622c00",
"q  c #5b6d2600",
"w  c #586d2c00",
"e  c #5e6f3200",
"r  c #55722f00",
"t  c #59753000",
"y  c #68711b00",
"u  c #727c1d00",
"i  c #626d2300",
"p  c #64782700",
"a  c #657a2a00",
"s  c #66763400",
"d  c #73793d00",
"f  c #57594400",
"g  c #5b5f4f00",
"h  c #58654600",
"j  c #5e644b00",
"k  c #5a694600",
"l  c #606d4400",
"z  c #67685b00",
"x  c #686e5900",
"c  c #68744300",
"v  c #6e784a00",
"b  c #69705500",
"n  c #757f5300",
"m  c #73746a00",
"M  c #777e6000",
"N  c #74786a00",
"B  c #7c7c7400",
"V  c #72961e00",
"C  c #759f1300",
"Z  c #789e1800",
"A  c #65822800",
"S  c #6b812f00",
"D  c #6d8d2500",
"F  c #6b8a3b00",
"G  c #71872e00",
"H  c #778c2d00",
"J  c #7d852100",
"K  c #788e2d00",
"L  c #73823500",
"P  c #71873d00",
"I  c #758c3b00",
"U  c #798d3f00",
"Y  c #77972400",
"T  c #79962e00",
"R  c #7a903100",
"E  c #7f913f00",
"W  c #76a11500",
"Q  c #7ca71300",
"!  c #7ca31b00",
"~  c #7da81200",
"^  c #7fa22400",
"/  c #6f824200",
"(  c #76834d00",
")  c #758a4100",
"_  c #74884b00",
"`  c #78864d00",
"'  c #7b8d4d00",
"]  c #77865700",
"[  c #7a875200",
"{  c #7d8b5200",
"}  c #7c895a00",
"|  c #7c904f00",
" . c #7c924200",
".. c #7e876300",
"X. c #7d807200",
"o. c #80872600",
"O. c #81852900",
"+. c #818c2c00",
"@. c #82863d00",
"#. c #81953d00",
"$. c #83993700",
"%. c #939e2b00",
"&. c #82a61f00",
"*. c #83ac1900",
"=. c #86b21400",
"-. c #8cb51400",
";. c #8dba1500",
":. c #90b31f00",
">. c #92bc1400",
",. c #86a13a00",
"<. c #8ba63700",
"1. c #8da93700",
"2. c #8db52500",
"3. c #98a62700",
"4. c #9daa2900",
"5. c #93aa3800",
"6. c #9bbd2300",
"7. c #95be3200",
"8. c #99b63000",
"9. c #9cb03b00",
"0. c #a9ae3800",
"q. c #a6b03200",
"w. c #adbe3600",
"e. c #a8b83e00",
"r. c #838d5300",
"t. c #868e5900",
"y. c #86904d00",
"u. c #829d4500",
"i. c #83945600",
"p. c #84935800",
"a. c #85995500",
"s. c #8b905b00",
"d. c #8a9e5500",
"f. c #899b5900",
"g. c #858c6b00",
"h. c #878e7100",
"j. c #87897e00",
"k. c #84847e00",
"l. c #89906500",
"z. c #8f9b6500",
"x. c #8c917c00",
"c. c #92986700",
"v. c #90967300",
"b. c #979f7500",
"n. c #959d7e00",
"m. c #87a24500",
"M. c #98ae4800",
"N. c #95ad5300",
"B. c #9ab04400",
"V. c #9ab34b00",
"C. c #94b24100",
"Z. c #9ab15500",
"A. c #92a16400",
"S. c #9ba47e00",
"D. c #9ba67300",
"F. c #a9a64000",
"G. c #a4a75500",
"H. c #afa65400",
"J. c #a7be4500",
"K. c #aeb94e00",
"L. c #a5be5200",
"P. c #a1ab6f00",
"I. c #a3ac7800",
"U. c #a2ac7200",
"Y. c #a5b36700",
"T. c #a0b36a00",
"R. c #b3b87600",
"E. c #b6b47b00",
"W. c #95c21500",
"Q. c #90c11b00",
"!. c #99ca1800",
"~. c #9dce2300",
"^. c #a0d41f00",
"/. c #a8cf3e00",
"(. c #a6d73b00",
"). c #acdd3700",
"_. c #b1c13200",
"`. c #bbc43700",
"'. c #9fc74400",
"]. c #acc04a00",
"[. c #abc15100",
"{. c #b5c94800",
"}. c #bbcf4100",
"|. c #b2c05a00",
" X c #b1cc5100",
".X c #b4c95a00",
"XX c #b7d95c00",
"oX c #bad55800",
"OX c #afc36b00",
"+X c #b6c56500",
"@X c #b8c87a00",
"#X c #c5bf5c00",
"$X c #c5c65500",
"%X c #c7cc5900",
"&X c #c8c95000",
"*X c #c3d04900",
"=X c #ccd44f00",
"-X c #c6d25900",
";X c #ccdc5800",
":X c #ccd65d00",
">X c #d0d75600",
",X c #d6dc5f00",
"<X c #cfca7a00",
"1X c #c6df7600",
"2X c #c9dc7f00",
"3X c #d0cd7700",
"4X c #d5dc7700",
"5X c #cce47500",
"6X c #8a8e8400",
"7X c #8f8f8900",
"8X c #8d918600",
"9X c #8f928a00",
"0X c #92968100",
"qX c #94958d00",
"wX c #949a8400",
"eX c #969a8c00",
"rX c #9b9f8c00",
"tX c #96989100",
"yX c #9a9d9200",
"uX c #9aa18500",
"iX c #9ea68900",
"pX c #9fa29600",
"aX c #a7a58500",
"sX c #a3a49d00",
"dX c #a5ac9200",
"fX c #abb38a00",
"gX c #afb89000",
"hX c #b5b18500",
"jX c #b4b48b00",
"kX c #b2b79e00",
"lX c #b2b99200",
"zX c #a5a6a200",
"xX c #a9aaa300",
"cX c #acadab00",
"vX c #aeb2a200",
"bX c #b1b5a500",
"nX c #b2b3ae00",
"mX c #b4b4b200",
"MX c #b7b8b600",
"NX c #b8bab500",
"BX c #bcbdbc00",
"VX c #bdcf8300",
"CX c #bfc0bc00",
"ZX c #dbcb8200",
"AX c #d1d68100",
"SX c #c1c1bf00",
"DX c #c4c5c400",
"FX c gray80",
"GX c lightgray",
"HX c gainsboro",
"JX c #e4e4e400",
"KX c #ececec00",
"LX c #f4f4f400",
"PX c #fbfbfb00",
"IX c None",
/* pixels */
"IXIXIXIXIXIXIXIXIXIXIXIXIXIXIXIXIXIXIXIXIXIXIXIXIXIXIXIXIXIXIXIX",
"IXIXIXIXIXIXIXIXIXIXIXIXIXIXIXIXIXIXIXIXIXIXIXIXIXIXIXIXIXIXIXIX",
"IXIXIXIXIXIXIXIXIXIXIXIXIXIXIXIXIXIXIXIXIXIXIXIXIXIXIXIXIXIXIXIX",
"IXIXIXIXIXIXIXIXIXIXIXKXJXJXJXJXJXJXJXJXJXKXIXIXIXIXIXIXIXIXIXIX",
"IXIXIXIXIXIXIXIXIXKXJXJXHXHXGXGXGXGXGXHXHXJXJXKXIXIXIXIXIXIXIXIX",
"IXIXIXIXIXIXIXIXKXHXHXFXDXDXSXBXBXCXSXDXFXGXHXJXJXIXIXIXIXIXIXIX",
"IXIXIXIXIXIXIXJXHXGXDXBXmXcXzXsXsXsXzXcXmXBXDXGXHXJXIXIXIXIXIXIX",
"IXIXIXIXIXIXJXHXFXSXnXkXlXgXjXhXaXuXuXiXyXzXmXDXGXJXJXIXIXIXIXIX",
"IXIXIXIXIXJXJXFXSXbXgXVXAXAXZX<XE.I.I.n.n.0XyXcXDXGXJXKXIXIXIXIX",
"IXIXIXIXIXJXHXDXbXfX@X5X5X4X3XR.U.P.D.b.v.h.h.eXnXDXHXJXIXIXIXIX",
"IXIXIXIXKXHXFXNXfXOXXXXXXX+XY.A.c.A.c.c.l.} ] g.sXBXFXHXKXIXIXIX",
"IXIXIXIXJXHXDXvXT./.).(.'.N.f.i.i.i.p.s.t.` I ` x.cXFXHXKXIXIXIX",
"IXIXIXIXJXGXBXdXV.~.^.~.~.u.| { { { r.t.y.#.K L g.sXDXHXJXIXIXIX",
"IXIXIXIXJXGXMXiXC.!.!.Q.2.#.' ` ` ` [ r.y.$.K a n rXBXGXJXIXIXIX",
"IXIXIXKXHXFXMXuX1.W.W.;.*.^ T F / ( [ { y.E H p v qXMXFXJXIXIXIX",
"IXIXIXJXHXFXmXS.1.>.W.=.Q ! Y D t ( ` { ' U G i c 8XNXFXHXKXIXIX",
"IXIXIXKXHXFXnXn.<.>.>.=.Q C V Y . ' { { ' ) S q k 8XmXFXHXKXIXIX",
"IXIXIXKXHXFXnXn.<.>.>.=.*.Z &.5.  f.a.i.| F t 8 k 6XmXFXHXKXIXIX",
"IXIXIXKXHXFXmXwX$.-.-.-.=.*.8.V.2 Z.Z.d. .F r 8 k 6XnXFXHXKXIXIX",
"IXIXIXKXJXFXmXwXE &.=.-.-.6.J.K..X XL.M.m.F r , h 8XmXFXJXKXIXIX",
"IXIXIXIXJXGXMXeX_ D V ! 2.}.:X%X;XoX].].B.I r 3 h 9XMXGXJXIXIXIX",
"IXIXIXIXJXGXCXpX] a A D 9.%X,X>X=X*X{.].B.I w 3 j tXBXGXJXIXIXIX",
"IXIXIXIXJXHXDXzXg.s p R K.#X$X&X`._.w.e.5.L 9 < x pXDXHXJXIXIXIX",
"IXIXIXIXKXHXFXmXx.c q L G.H.0.0.q.4.3.%.+.i & 1 X.cXFXHXJXIXIXIX",
"IXIXIXIXIXJXHXDXsXM 6 6 d @.O.o.O.J u y = % @ j tXBXGXJXKXIXIXIX",
"IXIXIXIXIXJXHXFXMXqXb 5 ; 6 = = * & % + X o f j.mXFXHXJXIXIXIXIX",
"IXIXIXIXIXIXJXHXDXmXtXN g 4 - : O O O : 4 z 7XnXDXGXJXKXIXIXIXIX",
"IXIXIXIXIXIXKXJXHXFXBXzXqXk.B m m m N X.7XsXMXFXGXJXKXIXIXIXIXIX",
"IXIXIXIXIXIXIXJXJXHXFXDXBXmXnXcXxXcXcXmXNXDXFXHXJXJXIXIXIXIXIXIX",
"IXIXIXIXIXIXIXIXKXJXJXHXGXFXFXDXDXDXDXGXGXHXHXJXKXIXIXIXIXIXIXIX",
"IXIXIXIXIXIXIXIXIXIXKXJXJXJXHXHXHXHXHXHXJXJXKXIXIXIXIXIXIXIXIXIX",
"IXIXIXIXIXIXIXIXIXIXIXIXIXKXKXJXKXKXKXKXIXIXIXIXIXIXIXIXIXIXIXIX"
};
